<?xml version="1.0" encoding="UTF-8" standalone="no"?>
<!-- Created with Inkscape (http://www.inkscape.org/) -->
<svg
   xmlns:dc="http://purl.org/dc/elements/1.1/"
   xmlns:cc="http://creativecommons.org/ns#"
   xmlns:rdf="http://www.w3.org/1999/02/22-rdf-syntax-ns#"
   xmlns:svg="http://www.w3.org/2000/svg"
   xmlns="http://www.w3.org/2000/svg"
   xmlns:sodipodi="http://sodipodi.sourceforge.net/DTD/sodipodi-0.dtd"
   xmlns:inkscape="http://www.inkscape.org/namespaces/inkscape"
   id="svg6279"
   sodipodi:version="0.32"
   inkscape:version="0.46"
   width="708.75"
   height="811.25"
   xml:space="preserve"
   sodipodi:docname="Figure_001-005-a_newcolors.svg"
   inkscape:export-filename="/home/jpivarski/work/hepr8.physics.tamu.edu/talks/2010-02-09_DoE_review/Figure_001-005-a_newcolors.png"
   inkscape:export-xdpi="90"
   inkscape:export-ydpi="90"
   inkscape:output_extension="org.inkscape.output.svg.inkscape"><metadata
     id="metadata6284"><rdf:RDF><cc:Work
         rdf:about=""><dc:format>image/svg+xml</dc:format><dc:type
           rdf:resource="http://purl.org/dc/dcmitype/StillImage" /></cc:Work></rdf:RDF></metadata><defs
     id="defs6282"><inkscape:perspective
       sodipodi:type="inkscape:persp3d"
       inkscape:vp_x="0 : 526.18109 : 1"
       inkscape:vp_y="0 : 1000 : 0"
       inkscape:vp_z="744.09448 : 526.18109 : 1"
       inkscape:persp3d-origin="372.04724 : 350.78739 : 1"
       id="perspective6286" /></defs><sodipodi:namedview
     inkscape:window-height="846"
     inkscape:window-width="1434"
     inkscape:pageshadow="2"
     inkscape:pageopacity="0.0"
     guidetolerance="10.0"
     gridtolerance="10.0"
     objecttolerance="10.0"
     borderopacity="1.0"
     bordercolor="#666666"
     pagecolor="#ffffff"
     id="base"
     showgrid="false"
     inkscape:zoom="0.59661017"
     inkscape:cx="354.375"
     inkscape:cy="405.625"
     inkscape:window-x="0"
     inkscape:window-y="0"
     inkscape:current-layer="g6288" /><g
     id="g6288"
     inkscape:groupmode="layer"
     inkscape:label="Figure_001-005-a_newcolors"
     transform="matrix(1.25,0,0,-1.25,0,811.25)"><path
       id="path6292"
       style="fill:none;stroke:#000000;stroke-width:0.75;stroke-linecap:butt;stroke-linejoin:miter;stroke-miterlimit:10;stroke-dasharray:none;stroke-opacity:1"
       d="M 550,65 L 56.75,65 L 56.75,636.25 L 550,636.25 L 550,65 z" /><path
       id="path6294"
       style="fill:none;stroke:#000000;stroke-width:0.75;stroke-linecap:butt;stroke-linejoin:miter;stroke-miterlimit:10;stroke-dasharray:none;stroke-opacity:1"
       d="M 550,65 L 56.75,65 L 56.75,636.25 L 550,636.25 L 550,65 z M 56.75,65 L 550,65" /><path
       id="path6296"
       style="fill:#000000;fill-opacity:1;fill-rule:nonzero;stroke:none"
       d="M 472.105,26.012 L 467.957,26.012 L 467.957,25.492 C 468.91,25.34 469.129,25.121 469.129,24.211 L 469.129,13.328 C 469.129,12.438 468.953,12.242 467.914,12.07 L 467.914,11.547 L 473.84,11.547 L 473.84,12.004 C 472.516,12.07 472.148,12.504 472.148,13.957 L 472.148,17.02 C 473.191,16 473.754,15.719 474.711,15.719 C 477.141,15.719 478.879,17.977 478.879,21.191 C 478.879,24.211 477.25,26.273 474.84,26.273 C 473.559,26.273 472.777,25.773 472.105,24.512 L 472.105,26.012 M 472.148,23.516 C 472.148,23.668 472.344,24.012 472.605,24.297 C 473.039,24.773 473.539,25.035 474.016,25.035 C 475.145,25.035 475.664,23.73 475.664,20.887 C 475.664,18.195 475.059,16.914 473.82,16.914 C 473.102,16.914 472.473,17.41 472.148,18.238 L 472.148,23.516" /><path
       id="path6298"
       style="fill:#000000;fill-opacity:1;fill-rule:nonzero;stroke:none"
       d="M 486.113,13.48 L 484.375,13.48 C 483.484,13.48 483.289,13.699 483.289,14.633 L 483.289,28.488 C 483.289,29.746 483.527,30.008 484.742,30.008 L 486.113,30.008 L 486.113,30.723 L 481.031,30.723 L 481.031,12.766 L 486.113,12.766 L 486.113,13.48" /><path
       id="path6300"
       style="fill:#000000;fill-opacity:1;fill-rule:nonzero;stroke:none"
       d="M 503.203,22.234 L 495.754,22.234 L 495.754,21.691 C 497.621,21.582 497.949,21.344 497.949,20.168 L 497.949,17.891 C 497.949,16.781 497.316,16.305 495.863,16.305 C 494.496,16.305 493.582,16.715 492.867,17.652 C 491.91,18.867 491.453,20.734 491.453,23.34 C 491.453,27.879 492.82,30.289 495.449,30.289 C 496.449,30.289 497.383,29.898 498.34,29.074 C 499.273,28.25 499.773,27.512 500.531,25.859 L 501.074,25.859 L 501.074,30.941 L 500.488,30.941 C 500.184,30.18 499.945,29.941 499.531,29.941 C 499.336,29.941 499.012,30.027 498.535,30.246 C 497.254,30.77 496.211,31.008 495.168,31.008 C 490.848,31.008 487.609,27.66 487.609,23.188 C 487.609,18.715 490.781,15.586 495.34,15.586 C 497.578,15.586 499.945,16.109 501.336,16.934 L 501.336,19.691 C 501.336,21.254 501.574,21.516 503.203,21.691 L 503.203,22.234" /><path
       id="path6302"
       style="fill:#000000;fill-opacity:1;fill-rule:nonzero;stroke:none"
       d="M 512.434,18.715 C 511.562,17.652 510.891,17.258 509.957,17.258 C 509.109,17.258 508.48,17.652 508.023,18.41 C 507.633,19.105 507.461,19.82 507.371,21.32 L 512.844,21.32 C 512.715,23.145 512.391,24.164 511.695,24.992 C 510.977,25.836 509.98,26.273 508.785,26.273 C 506.07,26.273 504.246,24.121 504.246,20.953 C 504.246,17.781 506.027,15.695 508.719,15.695 C 510.477,15.695 511.543,16.391 512.953,18.41 L 512.434,18.715 M 507.266,22.125 C 507.328,24.73 507.719,25.598 508.785,25.598 C 509.391,25.598 509.805,25.25 509.98,24.578 C 510.086,24.164 510.129,23.559 510.176,22.449 L 510.176,22.125 L 507.266,22.125" /><path
       id="path6304"
       style="fill:#000000;fill-opacity:1;fill-rule:nonzero;stroke:none"
       d="M 528.57,30.68 L 523.941,30.68 L 523.941,30.137 C 525.484,30.027 525.809,29.879 525.809,29.184 C 525.809,28.836 525.746,28.574 525.375,27.641 L 522.617,20.496 L 519.621,27.75 C 519.207,28.727 519.121,28.988 519.121,29.312 C 519.121,29.812 519.449,30.051 520.273,30.094 C 520.383,30.094 520.664,30.117 520.988,30.137 L 520.988,30.68 L 513.691,30.68 L 513.691,30.137 C 514.777,29.984 514.973,29.812 515.516,28.617 L 521.074,15.609 L 521.664,15.609 L 526.613,28.355 C 527.137,29.703 527.438,29.984 528.57,30.137 L 528.57,30.68" /><path
       id="path6306"
       style="fill:#000000;fill-opacity:1;fill-rule:nonzero;stroke:none"
       d="M 535.582,31.008 L 533.629,31.008 L 528.504,15.586 L 530.457,15.586 L 535.582,31.008" /><path
       id="path6308"
       style="fill:#000000;fill-opacity:1;fill-rule:nonzero;stroke:none"
       d="M 544.008,18.367 C 543.207,17.453 542.641,17.152 541.75,17.152 C 539.863,17.152 538.668,19.039 538.668,21.992 C 538.668,24.23 539.363,25.598 540.492,25.598 C 540.84,25.598 541.164,25.426 541.293,25.188 C 541.402,24.992 541.402,24.992 541.402,24.078 C 541.426,23.016 541.816,22.516 542.621,22.516 C 543.531,22.516 544.098,23.035 544.098,23.883 C 544.098,25.23 542.641,26.273 540.73,26.273 C 537.777,26.273 535.605,23.969 535.605,20.844 C 535.605,17.848 537.559,15.695 540.254,15.695 C 541.926,15.695 543.141,16.371 544.398,17.977 L 544.008,18.367" /><path
       id="path6310"
       style="fill:#000000;fill-opacity:1;fill-rule:nonzero;stroke:none"
       d="M 545.398,12.766 L 550.48,12.766 L 550.48,30.723 L 545.398,30.723 L 545.398,30.008 L 546.766,30.008 C 547.984,30.008 548.223,29.746 548.223,28.488 L 548.223,14.633 C 548.223,13.676 548.047,13.48 547.137,13.48 L 545.398,13.48 L 545.398,12.766" /><path
       id="path6312"
       style="fill:none;stroke:#000000;stroke-width:0.75;stroke-linecap:butt;stroke-linejoin:miter;stroke-miterlimit:10;stroke-dasharray:none;stroke-opacity:1"
       d="M 72,73.5 L 72,65 M 92.5,73.5 L 92.5,65 M 108.5,73.5 L 108.5,65 M 121.5,73.5 L 121.5,65 M 132.5,73.5 L 132.5,65 M 142,73.5 L 142,65 M 150.5,73.5 L 150.5,65 M 158,81.75 L 158,65" /><path
       id="path6314"
       style="fill:#000000;fill-opacity:1;fill-rule:nonzero;stroke:none"
       d="M 151.551,42.719 L 151.551,31.75 L 153.461,31.75 L 153.461,47.148 L 152.203,47.148 C 151.527,44.781 151.094,44.453 148.141,44.086 L 148.141,42.719 L 151.551,42.719" /><path
       id="path6316"
       style="fill:#000000;fill-opacity:1;fill-rule:nonzero;stroke:none"
       d="M 163.973,47.148 C 162.539,47.148 161.234,46.52 160.434,45.453 C 159.434,44.105 158.934,42.043 158.934,39.199 C 158.934,34.008 160.672,31.25 163.973,31.25 C 167.23,31.25 169.012,34.008 169.012,39.07 C 169.012,42.066 168.531,44.062 167.512,45.453 C 166.707,46.539 165.426,47.148 163.973,47.148 M 163.973,45.453 C 166.035,45.453 167.055,43.367 167.055,39.242 C 167.055,34.879 166.059,32.836 163.93,32.836 C 161.91,32.836 160.887,34.965 160.887,39.176 C 160.887,43.391 161.91,45.453 163.973,45.453" /><path
       id="path6318"
       style="fill:none;stroke:#000000;stroke-width:0.75;stroke-linecap:butt;stroke-linejoin:miter;stroke-miterlimit:10;stroke-dasharray:none;stroke-opacity:1"
       d="M 207.5,73.5 L 207.5,65 M 236.5,73.5 L 236.5,65 M 257,73.5 L 257,65 M 273,73.5 L 273,65 M 286,73.5 L 286,65 M 297,73.5 L 297,65 M 306.5,73.5 L 306.5,65 M 315,73.5 L 315,65 M 322.5,81.75 L 322.5,65" /><path
       id="path6320"
       style="fill:#000000;fill-opacity:1;fill-rule:nonzero;stroke:none"
       d="M 337.191,43.441 L 332.074,43.441 C 332.199,44.238 332.637,44.746 333.828,45.445 L 335.203,46.188 C 336.559,46.926 337.258,47.93 337.258,49.121 C 337.258,49.93 336.93,50.684 336.355,51.207 C 335.777,51.727 335.062,51.977 334.145,51.977 C 332.91,51.977 331.992,51.535 331.457,50.711 C 331.113,50.191 330.965,49.59 330.938,48.602 L 332.145,48.602 C 332.184,49.258 332.266,49.656 332.43,49.973 C 332.746,50.562 333.379,50.918 334.105,50.918 C 335.203,50.918 336.023,50.137 336.023,49.094 C 336.023,48.328 335.57,47.668 334.707,47.176 L 333.445,46.461 C 331.414,45.309 330.824,44.391 330.715,42.25 L 337.191,42.25 L 337.191,43.441" /><path
       id="path6322"
       style="fill:#000000;fill-opacity:1;fill-rule:nonzero;stroke:none"
       d="M 311.875,42.969 L 311.875,32 L 313.785,32 L 313.785,47.398 L 312.527,47.398 C 311.852,45.031 311.418,44.703 308.465,44.336 L 308.465,42.969 L 311.875,42.969" /><path
       id="path6324"
       style="fill:#000000;fill-opacity:1;fill-rule:nonzero;stroke:none"
       d="M 324.297,47.398 C 322.863,47.398 321.562,46.77 320.758,45.703 C 319.758,44.355 319.258,42.293 319.258,39.449 C 319.258,34.258 320.996,31.5 324.297,31.5 C 327.555,31.5 329.336,34.258 329.336,39.32 C 329.336,42.316 328.859,44.312 327.836,45.703 C 327.035,46.789 325.754,47.398 324.297,47.398 M 324.297,45.703 C 326.359,45.703 327.379,43.617 327.379,39.492 C 327.379,35.129 326.383,33.086 324.254,33.086 C 322.234,33.086 321.215,35.215 321.215,39.426 C 321.215,43.641 322.234,45.703 324.297,45.703" /><path
       id="path6326"
       style="fill:none;stroke:#000000;stroke-width:0.75;stroke-linecap:butt;stroke-linejoin:miter;stroke-miterlimit:10;stroke-dasharray:none;stroke-opacity:1"
       d="M 372,73.5 L 372,65 M 400.75,73.5 L 400.75,65 M 421.5,73.5 L 421.5,65 M 437.25,73.5 L 437.25,65 M 450.25,73.5 L 450.25,65 M 461.25,73.5 L 461.25,65 M 471,73.5 L 471,65 M 479.25,73.5 L 479.25,65 M 486.75,81.75 L 486.75,65" /><path
       id="path6328"
       style="fill:#000000;fill-opacity:1;fill-rule:nonzero;stroke:none"
       d="M 496.781,46.707 L 496.934,46.707 L 497.441,46.723 C 498.77,46.723 499.457,46.117 499.457,44.953 C 499.457,43.73 498.703,43.004 497.441,43.004 C 496.121,43.004 495.477,43.664 495.395,45.074 L 494.188,45.074 C 494.242,44.293 494.383,43.785 494.613,43.348 C 495.109,42.414 496.066,41.934 497.398,41.934 C 499.402,41.934 500.691,43.129 500.691,44.965 C 500.691,46.199 500.211,46.887 499.043,47.285 C 499.949,47.641 500.402,48.328 500.402,49.301 C 500.402,50.973 499.293,51.977 497.441,51.977 C 495.477,51.977 494.438,50.906 494.395,48.832 L 495.602,48.832 C 495.617,49.422 495.672,49.754 495.82,50.055 C 496.094,50.59 496.699,50.918 497.453,50.918 C 498.523,50.918 499.168,50.289 499.168,49.258 C 499.168,48.574 498.922,48.16 498.387,47.941 C 498.059,47.805 497.633,47.75 496.781,47.738 L 496.781,46.707" /><path
       id="path6330"
       style="fill:#000000;fill-opacity:1;fill-rule:nonzero;stroke:none"
       d="M 475.375,42.969 L 475.375,32 L 477.285,32 L 477.285,47.398 L 476.027,47.398 C 475.352,45.031 474.918,44.703 471.965,44.336 L 471.965,42.969 L 475.375,42.969" /><path
       id="path6332"
       style="fill:#000000;fill-opacity:1;fill-rule:nonzero;stroke:none"
       d="M 487.797,47.398 C 486.363,47.398 485.062,46.77 484.258,45.703 C 483.258,44.355 482.758,42.293 482.758,39.449 C 482.758,34.258 484.496,31.5 487.797,31.5 C 491.055,31.5 492.836,34.258 492.836,39.32 C 492.836,42.316 492.359,44.312 491.336,45.703 C 490.535,46.789 489.254,47.398 487.797,47.398 M 487.797,45.703 C 489.859,45.703 490.879,43.617 490.879,39.492 C 490.879,35.129 489.883,33.086 487.754,33.086 C 485.734,33.086 484.715,35.215 484.715,39.426 C 484.715,43.641 485.734,45.703 487.797,45.703" /><path
       id="path6334"
       style="fill:none;stroke:#000000;stroke-width:0.75;stroke-linecap:butt;stroke-linejoin:miter;stroke-miterlimit:10;stroke-dasharray:none;stroke-opacity:1"
       d="M 536.25,73.5 L 536.25,65 M 56.75,65 L 56.75,636.25" /><path
       id="path6336"
       style="fill:#000000;fill-opacity:1;fill-rule:nonzero;stroke:none"
       d="M 15.773,609.051 L 15.773,606.008 L 32.234,606.008 L 32.234,609.051 L 26.109,609.051 C 27.414,609.789 28.02,610.832 28.02,612.309 C 28.02,615.129 25.371,617.215 21.809,617.215 C 20.16,617.215 18.508,616.738 17.422,615.957 C 16.316,615.176 15.578,613.719 15.578,612.309 C 15.578,610.832 16.207,609.789 17.512,609.051 L 15.773,609.051 M 18.117,611.613 C 18.117,613.156 19.617,614.176 21.855,614.176 C 23.98,614.176 25.48,613.109 25.48,611.613 C 25.48,610.094 24.004,609.051 21.809,609.051 C 19.617,609.051 18.117,610.094 18.117,611.613" /><path
       id="path6338"
       style="fill:#000000;fill-opacity:1;fill-rule:nonzero;stroke:none"
       d="M 11.992,622.535 L 27.805,618.062 L 27.805,619.52 L 11.992,623.992 L 11.992,622.535" /><path
       id="path6340"
       style="fill:#000000;fill-opacity:1;fill-rule:nonzero;stroke:none"
       d="M 15.773,628.355 L 15.773,625.316 L 32.234,625.316 L 32.234,628.355 L 26.109,628.355 C 27.414,629.094 28.02,630.137 28.02,631.613 C 28.02,634.438 25.371,636.523 21.809,636.523 C 20.16,636.523 18.508,636.043 17.422,635.262 C 16.316,634.48 15.578,633.027 15.578,631.613 C 15.578,630.137 16.207,629.094 17.512,628.355 L 15.773,628.355 M 18.117,630.918 C 18.117,632.461 19.617,633.48 21.855,633.48 C 23.98,633.48 25.48,632.418 25.48,630.918 C 25.48,629.398 24.004,628.355 21.809,628.355 C 19.617,628.355 18.117,629.398 18.117,630.918" /><path
       id="path6342"
       style="fill:#000000;fill-opacity:1;fill-rule:nonzero;stroke:none"
       d="M 27.5,591.133 L 27.5,604.203 L 12.559,598.102 L 27.5,591.133 M 26.391,592.672 L 16.445,597.301 L 26.391,601.402 L 26.391,592.672" /><path
       id="path6344"
       style="fill:none;stroke:#000000;stroke-width:0.75;stroke-linecap:butt;stroke-linejoin:miter;stroke-miterlimit:10;stroke-dasharray:none;stroke-opacity:1"
       d="M 71.75,65 L 56.75,65" /><path
       id="path6346"
       style="fill:#000000;fill-opacity:1;fill-rule:nonzero;stroke:none"
       d="M 42.645,71.781 L 39.383,71.781 L 39.383,70.793 L 42.645,70.793 L 42.645,71.781 z" /><path
       id="path6348"
       style="fill:#000000;fill-opacity:1;fill-rule:nonzero;stroke:none"
       d="M 46.348,71.957 L 46.5,71.957 L 47.008,71.973 C 48.336,71.973 49.023,71.367 49.023,70.203 C 49.023,68.98 48.27,68.254 47.008,68.254 C 45.691,68.254 45.047,68.914 44.965,70.324 L 43.758,70.324 C 43.812,69.543 43.949,69.035 44.18,68.598 C 44.676,67.664 45.637,67.184 46.965,67.184 C 48.969,67.184 50.258,68.379 50.258,70.215 C 50.258,71.449 49.777,72.137 48.613,72.535 C 49.516,72.891 49.969,73.578 49.969,74.551 C 49.969,76.223 48.859,77.227 47.008,77.227 C 45.047,77.227 44.004,76.156 43.961,74.082 L 45.168,74.082 C 45.184,74.672 45.238,75.004 45.387,75.305 C 45.664,75.84 46.266,76.168 47.02,76.168 C 48.09,76.168 48.734,75.539 48.734,74.508 C 48.734,73.824 48.488,73.41 47.953,73.191 C 47.625,73.055 47.199,73 46.348,72.988 L 46.348,71.957" /><path
       id="path6350"
       style="fill:#000000;fill-opacity:1;fill-rule:nonzero;stroke:none"
       d="M 20.375,68.219 L 20.375,57.25 L 22.285,57.25 L 22.285,72.648 L 21.027,72.648 C 20.352,70.281 19.918,69.953 16.965,69.586 L 16.965,68.219 L 20.375,68.219" /><path
       id="path6352"
       style="fill:#000000;fill-opacity:1;fill-rule:nonzero;stroke:none"
       d="M 32.797,72.648 C 31.363,72.648 30.062,72.02 29.258,70.953 C 28.258,69.605 27.758,67.543 27.758,64.699 C 27.758,59.508 29.496,56.75 32.797,56.75 C 36.055,56.75 37.836,59.508 37.836,64.57 C 37.836,67.566 37.359,69.562 36.336,70.953 C 35.535,72.039 34.254,72.648 32.797,72.648 M 32.797,70.953 C 34.859,70.953 35.879,68.867 35.879,64.742 C 35.879,60.379 34.883,58.336 32.754,58.336 C 30.734,58.336 29.715,60.465 29.715,64.676 C 29.715,68.891 30.734,70.953 32.797,70.953" /><path
       id="path6354"
       style="fill:none;stroke:#000000;stroke-width:0.75;stroke-linecap:butt;stroke-linejoin:miter;stroke-miterlimit:10;stroke-dasharray:none;stroke-opacity:1"
       d="M 64.25,122.25 L 56.75,122.25 M 64.25,155.75 L 56.75,155.75 M 64.25,179.5 L 56.75,179.5 M 64.25,198 L 56.75,198 M 64.25,213 L 56.75,213 M 64.25,225.75 L 56.75,225.75 M 64.25,237 L 56.75,237 M 64.25,246.75 L 56.75,246.75 M 71.75,255.25 L 56.75,255.25" /><path
       id="path6356"
       style="fill:#000000;fill-opacity:1;fill-rule:nonzero;stroke:none"
       d="M 42.645,262.531 L 39.383,262.531 L 39.383,261.543 L 42.645,261.543 L 42.645,262.531 z" /><path
       id="path6358"
       style="fill:#000000;fill-opacity:1;fill-rule:nonzero;stroke:none"
       d="M 50.258,259.441 L 45.141,259.441 C 45.266,260.238 45.703,260.746 46.898,261.445 L 48.27,262.188 C 49.625,262.926 50.328,263.93 50.328,265.121 C 50.328,265.93 49.996,266.684 49.422,267.207 C 48.844,267.727 48.133,267.977 47.211,267.977 C 45.977,267.977 45.059,267.535 44.523,266.711 C 44.18,266.191 44.031,265.59 44.004,264.602 L 45.211,264.602 C 45.25,265.258 45.332,265.656 45.5,265.973 C 45.812,266.562 46.445,266.918 47.172,266.918 C 48.27,266.918 49.094,266.137 49.094,265.094 C 49.094,264.328 48.641,263.668 47.773,263.176 L 46.512,262.461 C 44.484,261.309 43.895,260.391 43.785,258.25 L 50.258,258.25 L 50.258,259.441" /><path
       id="path6360"
       style="fill:#000000;fill-opacity:1;fill-rule:nonzero;stroke:none"
       d="M 20.375,258.969 L 20.375,248 L 22.285,248 L 22.285,263.398 L 21.027,263.398 C 20.352,261.031 19.918,260.703 16.965,260.336 L 16.965,258.969 L 20.375,258.969" /><path
       id="path6362"
       style="fill:#000000;fill-opacity:1;fill-rule:nonzero;stroke:none"
       d="M 32.797,263.398 C 31.363,263.398 30.062,262.77 29.258,261.703 C 28.258,260.355 27.758,258.293 27.758,255.449 C 27.758,250.258 29.496,247.5 32.797,247.5 C 36.055,247.5 37.836,250.258 37.836,255.32 C 37.836,258.316 37.359,260.312 36.336,261.703 C 35.535,262.789 34.254,263.398 32.797,263.398 M 32.797,261.703 C 34.859,261.703 35.879,259.617 35.879,255.492 C 35.879,251.129 34.883,249.086 32.754,249.086 C 30.734,249.086 29.715,251.215 29.715,255.426 C 29.715,259.641 30.734,261.703 32.797,261.703" /><path
       id="path6364"
       style="fill:none;stroke:#000000;stroke-width:0.75;stroke-linecap:butt;stroke-linejoin:miter;stroke-miterlimit:10;stroke-dasharray:none;stroke-opacity:1"
       d="M 64.25,312.75 L 56.75,312.75 M 64.25,346.25 L 56.75,346.25 M 64.25,370 L 56.75,370 M 64.25,388.5 L 56.75,388.5 M 64.25,403.5 L 56.75,403.5 M 64.25,416.25 L 56.75,416.25 M 64.25,427.25 L 56.75,427.25 M 64.25,437 L 56.75,437 M 71.75,445.75 L 56.75,445.75" /><path
       id="path6366"
       style="fill:#000000;fill-opacity:1;fill-rule:nonzero;stroke:none"
       d="M 45.145,453.531 L 41.883,453.531 L 41.883,452.543 L 45.145,452.543 L 45.145,453.531 z" /><path
       id="path6368"
       style="fill:#000000;fill-opacity:1;fill-rule:nonzero;stroke:none"
       d="M 49.371,456.176 L 49.371,449.25 L 50.578,449.25 L 50.578,458.977 L 49.781,458.977 C 49.355,457.48 49.082,457.273 47.215,457.039 L 47.215,456.176 L 49.371,456.176" /><path
       id="path6370"
       style="fill:#000000;fill-opacity:1;fill-rule:nonzero;stroke:none"
       d="M 22.875,449.969 L 22.875,439 L 24.785,439 L 24.785,454.398 L 23.527,454.398 C 22.852,452.031 22.418,451.703 19.465,451.336 L 19.465,449.969 L 22.875,449.969" /><path
       id="path6372"
       style="fill:#000000;fill-opacity:1;fill-rule:nonzero;stroke:none"
       d="M 35.297,454.398 C 33.863,454.398 32.562,453.77 31.758,452.703 C 30.758,451.355 30.258,449.293 30.258,446.449 C 30.258,441.258 31.996,438.5 35.297,438.5 C 38.555,438.5 40.336,441.258 40.336,446.32 C 40.336,449.316 39.859,451.312 38.836,452.703 C 38.035,453.789 36.754,454.398 35.297,454.398 M 35.297,452.703 C 37.359,452.703 38.379,450.617 38.379,446.492 C 38.379,442.129 37.383,440.086 35.254,440.086 C 33.234,440.086 32.215,442.215 32.215,446.426 C 32.215,450.641 33.234,452.703 35.297,452.703" /><path
       id="path6374"
       style="fill:none;stroke:#000000;stroke-width:0.75;stroke-linecap:butt;stroke-linejoin:miter;stroke-miterlimit:10;stroke-dasharray:none;stroke-opacity:1"
       d="M 64.25,503.25 L 56.75,503.25 M 64.25,536.75 L 56.75,536.75 M 64.25,560.5 L 56.75,560.5 M 64.25,579 L 56.75,579 M 64.25,594 L 56.75,594 M 64.25,606.75 L 56.75,606.75 M 64.25,617.75 L 56.75,617.75 M 64.25,627.5 L 56.75,627.5 M 71.75,636.25 L 56.75,636.25" /><path
       id="path6376"
       style="fill:#000000;fill-opacity:1;fill-rule:nonzero;stroke:none"
       d="M 45.551,638.469 L 45.551,627.5 L 47.461,627.5 L 47.461,642.898 L 46.203,642.898 C 45.527,640.531 45.094,640.203 42.141,639.836 L 42.141,638.469 L 45.551,638.469" /><path
       id="path6378"
       style="fill:none;stroke:#0000ff;stroke-width:1.5;stroke-linecap:butt;stroke-linejoin:miter;stroke-miterlimit:10;stroke-dasharray:none;stroke-opacity:1"
       d="M 121.5,228 L 56.75,228 M 121.5,228 L 158,228 M 158,225.75 L 158,230.25 M 121.5,228 L 121.5,233.25 M 119.25,233.25 L 123.75,233.25 M 121.5,228 L 121.5,222.25 M 119.25,222.25 L 123.75,222.25 M 187,230.75 L 158,230.75 M 158,228.5 L 158,233 M 187,230.75 L 207.5,230.75 M 207.5,228.5 L 207.5,233 M 187,230.75 L 187,234.25 M 184.75,234.25 L 189.25,234.25 M 187,230.75 L 187,227 M 184.75,227 L 189.25,227 M 273,254.25 L 247.5,254.25 M 247.5,252 L 247.5,256.5 M 273,254.25 L 291.75,254.25 M 291.75,252 L 291.75,256.5 M 273,254.25 L 273,256 M 270.75,256 L 275.25,256 M 273,254.25 L 273,252.25 M 270.75,252.25 L 275.25,252.25 M 322.5,282.75 L 306.5,282.75 M 306.5,280.5 L 306.5,285 M 322.5,282.75 L 335.5,282.75 M 335.5,280.5 L 335.5,285 M 322.5,282.75 L 322.5,284.5 M 320.25,284.5 L 324.75,284.5 M 322.5,282.75 L 322.5,281 M 320.25,281 L 324.75,281 M 378.75,327.5 L 368.25,327.5 M 368.25,325.25 L 368.25,329.75 M 378.75,327.5 L 387.75,327.5 M 387.75,325.25 L 387.75,329.75 M 378.75,327.5 L 378.75,329 M 376.5,329 L 381,329 M 378.75,327.5 L 378.75,326.25 M 376.5,326.25 L 381,326.25 M 405.5,344.5 L 398.5,344.5 M 398.5,342.25 L 398.5,346.75 M 405.5,344.5 L 411.75,344.5 M 411.75,342.25 L 411.75,346.75 M 405.5,344.5 L 405.5,346 M 403.25,346 L 407.75,346 M 405.5,344.5 L 405.5,343.25 M 403.25,343.25 L 407.75,343.25 M 433,362.75 L 428.25,362.75 M 428.25,360.5 L 428.25,365 M 433,362.75 L 437.25,362.75 M 437.25,360.5 L 437.25,365 M 433,362.75 L 433,364.25 M 430.75,364.25 L 435.25,364.25 M 433,362.75 L 433,361.5 M 430.75,361.5 L 435.25,361.5 M 493.75,384.5 L 486.75,384.5 M 486.75,382.25 L 486.75,386.75 M 493.75,384.5 L 499.75,384.5 M 499.75,382.25 L 499.75,386.75 M 493.75,384.5 L 493.75,385.25 M 491.25,385.25 L 496,385.25 M 493.75,384.5 L 493.75,383.75 M 491.25,383.75 L 496,383.75 M 539.75,401.5 L 536.25,401.5 M 536.25,399.25 L 536.25,403.75 M 539.75,401.5 L 543,401.5 M 543,399.25 L 543,403.75 M 539.75,401.5 L 539.75,402.5 M 537.5,402.5 L 542,402.5 M 539.75,401.5 L 539.75,400.25 M 537.5,400.25 L 542,400.25 M 121.5,228 L 134.75,227.5 L 148,227.5 L 161.5,228 L 174,229.25 L 187,230.75 L 203.25,233.25 L 217.25,236 L 229.25,238.75 L 240.5,242 L 251.5,245.5 L 261,249 L 270.5,253 L 273,254.25 L 283.5,259.25 L 294.25,265.25 L 305.25,271.75 L 316.75,279 L 322.5,282.75 L 329.75,288 L 337.75,294.5 L 351.5,305.75 L 364.5,317 L 372,322.75 L 378.75,327.5 L 405.5,344.5 L 416.75,352.25 L 426.75,359 L 433,362.75 L 439.5,366.25 L 446.75,369.5 L 493.75,384.5 L 539.75,401.5" /><path
       id="path6380"
       style="fill:#0000ff;fill-opacity:1;fill-rule:evenodd;stroke:none"
       d="M 498.988,384.48 C 498.988,387.379 496.637,389.73 493.738,389.73 C 490.844,389.73 488.488,387.379 488.488,384.48 C 488.488,381.582 490.844,379.23 493.738,379.23 C 496.637,379.23 498.988,381.582 498.988,384.48" /><path
       id="path6382"
       style="fill:#0000ff;fill-opacity:1;fill-rule:evenodd;stroke:none"
       d="M 438.27,362.762 C 438.27,365.656 435.918,368.012 433.02,368.012 C 430.121,368.012 427.77,365.656 427.77,362.762 C 427.77,359.863 430.121,357.512 433.02,357.512 C 435.918,357.512 438.27,359.863 438.27,362.762" /><path
       id="path6384"
       style="fill:#0000ff;fill-opacity:1;fill-rule:evenodd;stroke:none"
       d="M 410.73,344.52 C 410.73,347.418 408.379,349.77 405.48,349.77 C 402.582,349.77 400.23,347.418 400.23,344.52 C 400.23,341.621 402.582,339.27 405.48,339.27 C 408.379,339.27 410.73,341.621 410.73,344.52" /><path
       id="path6386"
       style="fill:#0000ff;fill-opacity:1;fill-rule:evenodd;stroke:none"
       d="M 384.031,327.48 C 384.031,330.379 381.68,332.73 378.781,332.73 C 375.883,332.73 373.531,330.379 373.531,327.48 C 373.531,324.582 375.883,322.23 378.781,322.23 C 381.68,322.23 384.031,324.582 384.031,327.48" /><path
       id="path6388"
       style="fill:#0000ff;fill-opacity:1;fill-rule:evenodd;stroke:none"
       d="M 327.75,282.781 C 327.75,285.68 325.398,288.031 322.5,288.031 C 319.602,288.031 317.25,285.68 317.25,282.781 C 317.25,279.883 319.602,277.531 322.5,277.531 C 325.398,277.531 327.75,279.883 327.75,282.781" /><path
       id="path6390"
       style="fill:#0000ff;fill-opacity:1;fill-rule:evenodd;stroke:none"
       d="M 278.25,254.219 C 278.25,257.117 275.898,259.469 273,259.469 C 270.102,259.469 267.75,257.117 267.75,254.219 C 267.75,251.32 270.102,248.969 273,248.969 C 275.898,248.969 278.25,251.32 278.25,254.219" /><path
       id="path6392"
       style="fill:#0000ff;fill-opacity:1;fill-rule:evenodd;stroke:none"
       d="M 192.27,230.762 C 192.27,233.656 189.918,236.012 187.02,236.012 C 184.121,236.012 181.77,233.656 181.77,230.762 C 181.77,227.863 184.121,225.512 187.02,225.512 C 189.918,225.512 192.27,227.863 192.27,230.762" /><path
       id="path6394"
       style="fill:#0000ff;fill-opacity:1;fill-rule:evenodd;stroke:none"
       d="M 126.75,228 C 126.75,230.898 124.398,233.25 121.5,233.25 C 118.602,233.25 116.25,230.898 116.25,228 C 116.25,225.102 118.602,222.75 121.5,222.75 C 124.398,222.75 126.75,225.102 126.75,228" /><path
       id="path6396"
       style="fill:none;stroke:#008000;stroke-width:1.17445195;stroke-linecap:butt;stroke-linejoin:miter;stroke-miterlimit:10;stroke-dasharray:none;stroke-opacity:1"
       d="M 109.121,245.719 L 109.121,247.562" /><path
       id="path6398"
       style="fill:none;stroke:#008000;stroke-width:1.17445195;stroke-linecap:butt;stroke-linejoin:miter;stroke-miterlimit:10;stroke-dasharray:none;stroke-opacity:1"
       d="M 109.121,247.562 L 109.121,249.367" /><path
       id="path6400"
       style="fill:none;stroke:#008000;stroke-width:1.17445195;stroke-linecap:butt;stroke-linejoin:miter;stroke-miterlimit:10;stroke-dasharray:none;stroke-opacity:1"
       d="M 56.902,247.562 L 109.121,247.562" /><path
       id="path6402"
       style="fill:none;stroke:#008000;stroke-width:1.17445195;stroke-linecap:butt;stroke-linejoin:miter;stroke-miterlimit:10;stroke-dasharray:none;stroke-opacity:1"
       d="M 109.121,247.562 L 158.539,247.562" /><path
       id="path6404"
       style="fill:none;stroke:#008000;stroke-width:1.17445195;stroke-linecap:butt;stroke-linejoin:miter;stroke-miterlimit:10;stroke-dasharray:none;stroke-opacity:1"
       d="M 105.25,245.719 L 112.992,245.719" /><path
       id="path6406"
       style="fill:none;stroke:#008000;stroke-width:1.17445195;stroke-linecap:butt;stroke-linejoin:miter;stroke-miterlimit:10;stroke-dasharray:none;stroke-opacity:1"
       d="M 105.25,249.367 L 112.992,249.367" /><path
       id="path6408"
       style="fill:none;stroke:#008000;stroke-width:1.17445195;stroke-linecap:butt;stroke-linejoin:miter;stroke-miterlimit:10;stroke-dasharray:none;stroke-opacity:1"
       d="M 158.539,243.824 L 158.539,251.305" /><path
       id="path6410"
       style="fill:none;stroke:#008000;stroke-width:1.17445195;stroke-linecap:butt;stroke-linejoin:miter;stroke-miterlimit:10;stroke-dasharray:none;stroke-opacity:1"
       d="M 107.93,247.562 L 109.121,247.562" /><path
       id="path6412"
       style="fill:none;stroke:#008000;stroke-width:1.17445195;stroke-linecap:butt;stroke-linejoin:miter;stroke-miterlimit:10;stroke-dasharray:none;stroke-opacity:1"
       d="M 187.445,248.922 L 187.445,250.961" /><path
       id="path6414"
       style="fill:none;stroke:#008000;stroke-width:1.17445195;stroke-linecap:butt;stroke-linejoin:miter;stroke-miterlimit:10;stroke-dasharray:none;stroke-opacity:1"
       d="M 187.445,250.961 L 187.445,252.949" /><path
       id="path6416"
       style="fill:none;stroke:#008000;stroke-width:1.17445195;stroke-linecap:butt;stroke-linejoin:miter;stroke-miterlimit:10;stroke-dasharray:none;stroke-opacity:1"
       d="M 158.539,250.961 L 187.445,250.961" /><path
       id="path6418"
       style="fill:none;stroke:#008000;stroke-width:1.17445195;stroke-linecap:butt;stroke-linejoin:miter;stroke-miterlimit:10;stroke-dasharray:none;stroke-opacity:1"
       d="M 187.445,250.961 L 207.953,250.961" /><path
       id="path6420"
       style="fill:none;stroke:#008000;stroke-width:1.17445195;stroke-linecap:butt;stroke-linejoin:miter;stroke-miterlimit:10;stroke-dasharray:none;stroke-opacity:1"
       d="M 183.574,248.922 L 191.316,248.922" /><path
       id="path6422"
       style="fill:none;stroke:#008000;stroke-width:1.17445195;stroke-linecap:butt;stroke-linejoin:miter;stroke-miterlimit:10;stroke-dasharray:none;stroke-opacity:1"
       d="M 183.574,252.949 L 191.316,252.949" /><path
       id="path6424"
       style="fill:none;stroke:#008000;stroke-width:1.17445195;stroke-linecap:butt;stroke-linejoin:miter;stroke-miterlimit:10;stroke-dasharray:none;stroke-opacity:1"
       d="M 158.539,247.219 L 158.539,254.699" /><path
       id="path6426"
       style="fill:none;stroke:#008000;stroke-width:1.17445195;stroke-linecap:butt;stroke-linejoin:miter;stroke-miterlimit:10;stroke-dasharray:none;stroke-opacity:1"
       d="M 207.953,247.219 L 207.953,254.699" /><path
       id="path6428"
       style="fill:none;stroke:#008000;stroke-width:1.17445195;stroke-linecap:butt;stroke-linejoin:miter;stroke-miterlimit:10;stroke-dasharray:none;stroke-opacity:1"
       d="M 186.25,250.961 L 187.445,250.961" /><path
       id="path6430"
       style="fill:none;stroke:#008000;stroke-width:1.17445195;stroke-linecap:butt;stroke-linejoin:miter;stroke-miterlimit:10;stroke-dasharray:none;stroke-opacity:1"
       d="M 223.863,252.453 L 223.863,255.043" /><path
       id="path6432"
       style="fill:none;stroke:#008000;stroke-width:1.17445195;stroke-linecap:butt;stroke-linejoin:miter;stroke-miterlimit:10;stroke-dasharray:none;stroke-opacity:1"
       d="M 223.863,255.043 L 223.863,257.555" /><path
       id="path6434"
       style="fill:none;stroke:#008000;stroke-width:1.17445195;stroke-linecap:butt;stroke-linejoin:miter;stroke-miterlimit:10;stroke-dasharray:none;stroke-opacity:1"
       d="M 207.953,255.043 L 223.863,255.043" /><path
       id="path6436"
       style="fill:none;stroke:#008000;stroke-width:1.17445195;stroke-linecap:butt;stroke-linejoin:miter;stroke-miterlimit:10;stroke-dasharray:none;stroke-opacity:1"
       d="M 223.863,255.043 L 236.859,255.043" /><path
       id="path6438"
       style="fill:none;stroke:#008000;stroke-width:1.17445195;stroke-linecap:butt;stroke-linejoin:miter;stroke-miterlimit:10;stroke-dasharray:none;stroke-opacity:1"
       d="M 219.992,252.453 L 227.734,252.453" /><path
       id="path6440"
       style="fill:none;stroke:#008000;stroke-width:1.17445195;stroke-linecap:butt;stroke-linejoin:miter;stroke-miterlimit:10;stroke-dasharray:none;stroke-opacity:1"
       d="M 219.992,257.555 L 227.734,257.555" /><path
       id="path6442"
       style="fill:none;stroke:#008000;stroke-width:1.17445195;stroke-linecap:butt;stroke-linejoin:miter;stroke-miterlimit:10;stroke-dasharray:none;stroke-opacity:1"
       d="M 207.953,251.305 L 207.953,258.785" /><path
       id="path6444"
       style="fill:none;stroke:#008000;stroke-width:1.17445195;stroke-linecap:butt;stroke-linejoin:miter;stroke-miterlimit:10;stroke-dasharray:none;stroke-opacity:1"
       d="M 236.859,251.305 L 236.859,258.785" /><path
       id="path6446"
       style="fill:none;stroke:#008000;stroke-width:1.17445195;stroke-linecap:butt;stroke-linejoin:miter;stroke-miterlimit:10;stroke-dasharray:none;stroke-opacity:1"
       d="M 222.668,255.043 L 223.863,255.043" /><path
       id="path6448"
       style="fill:none;stroke:#008000;stroke-width:1.17445195;stroke-linecap:butt;stroke-linejoin:miter;stroke-miterlimit:10;stroke-dasharray:none;stroke-opacity:1"
       d="M 247.848,264.234 L 247.848,268.734" /><path
       id="path6450"
       style="fill:none;stroke:#008000;stroke-width:1.17445195;stroke-linecap:butt;stroke-linejoin:miter;stroke-miterlimit:10;stroke-dasharray:none;stroke-opacity:1"
       d="M 247.848,268.734 L 247.848,273.004" /><path
       id="path6452"
       style="fill:none;stroke:#008000;stroke-width:1.17445195;stroke-linecap:butt;stroke-linejoin:miter;stroke-miterlimit:10;stroke-dasharray:none;stroke-opacity:1"
       d="M 236.859,268.734 L 247.848,268.734" /><path
       id="path6454"
       style="fill:none;stroke:#008000;stroke-width:1.17445195;stroke-linecap:butt;stroke-linejoin:miter;stroke-miterlimit:10;stroke-dasharray:none;stroke-opacity:1"
       d="M 247.848,268.734 L 257.371,268.734" /><path
       id="path6456"
       style="fill:none;stroke:#008000;stroke-width:1.17445195;stroke-linecap:butt;stroke-linejoin:miter;stroke-miterlimit:10;stroke-dasharray:none;stroke-opacity:1"
       d="M 243.98,264.234 L 251.719,264.234" /><path
       id="path6458"
       style="fill:none;stroke:#008000;stroke-width:1.17445195;stroke-linecap:butt;stroke-linejoin:miter;stroke-miterlimit:10;stroke-dasharray:none;stroke-opacity:1"
       d="M 243.98,273.004 L 251.719,273.004" /><path
       id="path6460"
       style="fill:none;stroke:#008000;stroke-width:1.17445195;stroke-linecap:butt;stroke-linejoin:miter;stroke-miterlimit:10;stroke-dasharray:none;stroke-opacity:1"
       d="M 236.859,264.996 L 236.859,272.473" /><path
       id="path6462"
       style="fill:none;stroke:#008000;stroke-width:1.17445195;stroke-linecap:butt;stroke-linejoin:miter;stroke-miterlimit:10;stroke-dasharray:none;stroke-opacity:1"
       d="M 257.371,264.996 L 257.371,272.473" /><path
       id="path6464"
       style="fill:none;stroke:#008000;stroke-width:1.17445195;stroke-linecap:butt;stroke-linejoin:miter;stroke-miterlimit:10;stroke-dasharray:none;stroke-opacity:1"
       d="M 246.656,268.734 L 247.848,268.734" /><path
       id="path6466"
       style="fill:none;stroke:#008000;stroke-width:1.17445195;stroke-linecap:butt;stroke-linejoin:miter;stroke-miterlimit:10;stroke-dasharray:none;stroke-opacity:1"
       d="M 265.766,263.711 L 265.766,268.453" /><path
       id="path6468"
       style="fill:none;stroke:#008000;stroke-width:1.17445195;stroke-linecap:butt;stroke-linejoin:miter;stroke-miterlimit:10;stroke-dasharray:none;stroke-opacity:1"
       d="M 265.766,268.453 L 265.766,272.938" /><path
       id="path6470"
       style="fill:none;stroke:#008000;stroke-width:1.17445195;stroke-linecap:butt;stroke-linejoin:miter;stroke-miterlimit:10;stroke-dasharray:none;stroke-opacity:1"
       d="M 257.371,268.453 L 265.766,268.453" /><path
       id="path6472"
       style="fill:none;stroke:#008000;stroke-width:1.17445195;stroke-linecap:butt;stroke-linejoin:miter;stroke-miterlimit:10;stroke-dasharray:none;stroke-opacity:1"
       d="M 265.766,268.453 L 273.277,268.453" /><path
       id="path6474"
       style="fill:none;stroke:#008000;stroke-width:1.17445195;stroke-linecap:butt;stroke-linejoin:miter;stroke-miterlimit:10;stroke-dasharray:none;stroke-opacity:1"
       d="M 261.895,263.711 L 269.637,263.711" /><path
       id="path6476"
       style="fill:none;stroke:#008000;stroke-width:1.17445195;stroke-linecap:butt;stroke-linejoin:miter;stroke-miterlimit:10;stroke-dasharray:none;stroke-opacity:1"
       d="M 261.895,272.938 L 269.637,272.938" /><path
       id="path6478"
       style="fill:none;stroke:#008000;stroke-width:1.17445195;stroke-linecap:butt;stroke-linejoin:miter;stroke-miterlimit:10;stroke-dasharray:none;stroke-opacity:1"
       d="M 257.371,264.711 L 257.371,272.191" /><path
       id="path6480"
       style="fill:none;stroke:#008000;stroke-width:1.17445195;stroke-linecap:butt;stroke-linejoin:miter;stroke-miterlimit:10;stroke-dasharray:none;stroke-opacity:1"
       d="M 273.277,264.711 L 273.277,272.191" /><path
       id="path6482"
       style="fill:none;stroke:#008000;stroke-width:1.17445195;stroke-linecap:butt;stroke-linejoin:miter;stroke-miterlimit:10;stroke-dasharray:none;stroke-opacity:1"
       d="M 264.57,268.453 L 265.766,268.453" /><path
       id="path6484"
       style="fill:none;stroke:#008000;stroke-width:1.17445195;stroke-linecap:butt;stroke-linejoin:miter;stroke-miterlimit:10;stroke-dasharray:none;stroke-opacity:1"
       d="M 289.188,271.102 L 289.188,274.398" /><path
       id="path6486"
       style="fill:none;stroke:#008000;stroke-width:1.17445195;stroke-linecap:butt;stroke-linejoin:miter;stroke-miterlimit:10;stroke-dasharray:none;stroke-opacity:1"
       d="M 289.188,274.398 L 289.188,277.57" /><path
       id="path6488"
       style="fill:none;stroke:#008000;stroke-width:1.17445195;stroke-linecap:butt;stroke-linejoin:miter;stroke-miterlimit:10;stroke-dasharray:none;stroke-opacity:1"
       d="M 273.277,274.398 L 289.188,274.398" /><path
       id="path6490"
       style="fill:none;stroke:#008000;stroke-width:1.17445195;stroke-linecap:butt;stroke-linejoin:miter;stroke-miterlimit:10;stroke-dasharray:none;stroke-opacity:1"
       d="M 289.188,274.398 L 302.184,274.398" /><path
       id="path6492"
       style="fill:none;stroke:#008000;stroke-width:1.17445195;stroke-linecap:butt;stroke-linejoin:miter;stroke-miterlimit:10;stroke-dasharray:none;stroke-opacity:1"
       d="M 285.316,271.102 L 293.059,271.102" /><path
       id="path6494"
       style="fill:none;stroke:#008000;stroke-width:1.17445195;stroke-linecap:butt;stroke-linejoin:miter;stroke-miterlimit:10;stroke-dasharray:none;stroke-opacity:1"
       d="M 285.316,277.57 L 293.059,277.57" /><path
       id="path6496"
       style="fill:none;stroke:#008000;stroke-width:1.17445195;stroke-linecap:butt;stroke-linejoin:miter;stroke-miterlimit:10;stroke-dasharray:none;stroke-opacity:1"
       d="M 273.277,270.66 L 273.277,278.141" /><path
       id="path6498"
       style="fill:none;stroke:#008000;stroke-width:1.17445195;stroke-linecap:butt;stroke-linejoin:miter;stroke-miterlimit:10;stroke-dasharray:none;stroke-opacity:1"
       d="M 302.184,270.66 L 302.184,278.141" /><path
       id="path6500"
       style="fill:none;stroke:#008000;stroke-width:1.17445195;stroke-linecap:butt;stroke-linejoin:miter;stroke-miterlimit:10;stroke-dasharray:none;stroke-opacity:1"
       d="M 287.992,274.398 L 289.188,274.398" /><path
       id="path6502"
       style="fill:none;stroke:#008000;stroke-width:1.17445195;stroke-linecap:butt;stroke-linejoin:miter;stroke-miterlimit:10;stroke-dasharray:none;stroke-opacity:1"
       d="M 313.172,281.598 L 313.172,285.785" /><path
       id="path6504"
       style="fill:none;stroke:#008000;stroke-width:1.17445195;stroke-linecap:butt;stroke-linejoin:miter;stroke-miterlimit:10;stroke-dasharray:none;stroke-opacity:1"
       d="M 313.172,285.785 L 313.172,289.77" /><path
       id="path6506"
       style="fill:none;stroke:#008000;stroke-width:1.17445195;stroke-linecap:butt;stroke-linejoin:miter;stroke-miterlimit:10;stroke-dasharray:none;stroke-opacity:1"
       d="M 302.184,285.785 L 313.172,285.785" /><path
       id="path6508"
       style="fill:none;stroke:#008000;stroke-width:1.17445195;stroke-linecap:butt;stroke-linejoin:miter;stroke-miterlimit:10;stroke-dasharray:none;stroke-opacity:1"
       d="M 313.172,285.785 L 322.695,285.785" /><path
       id="path6510"
       style="fill:none;stroke:#008000;stroke-width:1.17445195;stroke-linecap:butt;stroke-linejoin:miter;stroke-miterlimit:10;stroke-dasharray:none;stroke-opacity:1"
       d="M 309.305,281.598 L 317.043,281.598" /><path
       id="path6512"
       style="fill:none;stroke:#008000;stroke-width:1.17445195;stroke-linecap:butt;stroke-linejoin:miter;stroke-miterlimit:10;stroke-dasharray:none;stroke-opacity:1"
       d="M 309.305,289.77 L 317.043,289.77" /><path
       id="path6514"
       style="fill:none;stroke:#008000;stroke-width:1.17445195;stroke-linecap:butt;stroke-linejoin:miter;stroke-miterlimit:10;stroke-dasharray:none;stroke-opacity:1"
       d="M 302.184,282.043 L 302.184,289.523" /><path
       id="path6516"
       style="fill:none;stroke:#008000;stroke-width:1.17445195;stroke-linecap:butt;stroke-linejoin:miter;stroke-miterlimit:10;stroke-dasharray:none;stroke-opacity:1"
       d="M 322.695,282.043 L 322.695,289.523" /><path
       id="path6518"
       style="fill:none;stroke:#000000;stroke-width:1.17445195;stroke-linecap:butt;stroke-linejoin:miter;stroke-miterlimit:10;stroke-dasharray:none;stroke-opacity:1"
       d="M 311.98,285.785 L 313.172,285.785" /><path
       id="path6520"
       style="fill:none;stroke:#008000;stroke-width:1.17445195;stroke-linecap:butt;stroke-linejoin:miter;stroke-miterlimit:10;stroke-dasharray:none;stroke-opacity:1"
       d="M 351.602,319.77 L 351.602,321.875" /><path
       id="path6522"
       style="fill:none;stroke:#008000;stroke-width:1.17445195;stroke-linecap:butt;stroke-linejoin:miter;stroke-miterlimit:10;stroke-dasharray:none;stroke-opacity:1"
       d="M 351.602,321.875 L 351.602,323.93" /><path
       id="path6524"
       style="fill:none;stroke:#008000;stroke-width:1.17445195;stroke-linecap:butt;stroke-linejoin:miter;stroke-miterlimit:10;stroke-dasharray:none;stroke-opacity:1"
       d="M 322.695,321.875 L 351.602,321.875" /><path
       id="path6526"
       style="fill:none;stroke:#008000;stroke-width:1.17445195;stroke-linecap:butt;stroke-linejoin:miter;stroke-miterlimit:10;stroke-dasharray:none;stroke-opacity:1"
       d="M 351.602,321.875 L 372.109,321.875" /><path
       id="path6528"
       style="fill:none;stroke:#008000;stroke-width:1.17445195;stroke-linecap:butt;stroke-linejoin:miter;stroke-miterlimit:10;stroke-dasharray:none;stroke-opacity:1"
       d="M 347.73,319.77 L 355.469,319.77" /><path
       id="path6530"
       style="fill:none;stroke:#008000;stroke-width:1.17445195;stroke-linecap:butt;stroke-linejoin:miter;stroke-miterlimit:10;stroke-dasharray:none;stroke-opacity:1"
       d="M 347.73,323.93 L 355.469,323.93" /><path
       id="path6532"
       style="fill:none;stroke:#008000;stroke-width:1.17445195;stroke-linecap:butt;stroke-linejoin:miter;stroke-miterlimit:10;stroke-dasharray:none;stroke-opacity:1"
       d="M 322.695,318.137 L 322.695,325.617" /><path
       id="path6534"
       style="fill:none;stroke:#008000;stroke-width:1.17445195;stroke-linecap:butt;stroke-linejoin:miter;stroke-miterlimit:10;stroke-dasharray:none;stroke-opacity:1"
       d="M 372.109,318.137 L 372.109,325.617" /><path
       id="path6536"
       style="fill:none;stroke:#008000;stroke-width:1.17445195;stroke-linecap:butt;stroke-linejoin:miter;stroke-miterlimit:10;stroke-dasharray:none;stroke-opacity:1"
       d="M 350.406,321.875 L 351.602,321.875" /><path
       id="path6538"
       style="fill:none;stroke:#008000;stroke-width:1.17445195;stroke-linecap:butt;stroke-linejoin:miter;stroke-miterlimit:10;stroke-dasharray:none;stroke-opacity:1"
       d="M 394.812,373.211 L 394.812,376.922" /><path
       id="path6540"
       style="fill:none;stroke:#008000;stroke-width:1.17445195;stroke-linecap:butt;stroke-linejoin:miter;stroke-miterlimit:10;stroke-dasharray:none;stroke-opacity:1"
       d="M 394.812,376.922 L 394.812,380.473" /><path
       id="path6542"
       style="fill:none;stroke:#008000;stroke-width:1.17445195;stroke-linecap:butt;stroke-linejoin:miter;stroke-miterlimit:10;stroke-dasharray:none;stroke-opacity:1"
       d="M 372.109,376.922 L 394.812,376.922" /><path
       id="path6544"
       style="fill:none;stroke:#008000;stroke-width:1.17445195;stroke-linecap:butt;stroke-linejoin:miter;stroke-miterlimit:10;stroke-dasharray:none;stroke-opacity:1"
       d="M 394.812,376.922 L 412.004,376.922" /><path
       id="path6546"
       style="fill:none;stroke:#008000;stroke-width:1.17445195;stroke-linecap:butt;stroke-linejoin:miter;stroke-miterlimit:10;stroke-dasharray:none;stroke-opacity:1"
       d="M 390.941,373.211 L 398.684,373.211" /><path
       id="path6548"
       style="fill:none;stroke:#008000;stroke-width:1.17445195;stroke-linecap:butt;stroke-linejoin:miter;stroke-miterlimit:10;stroke-dasharray:none;stroke-opacity:1"
       d="M 390.941,380.473 L 398.684,380.473" /><path
       id="path6550"
       style="fill:none;stroke:#008000;stroke-width:1.17445195;stroke-linecap:butt;stroke-linejoin:miter;stroke-miterlimit:10;stroke-dasharray:none;stroke-opacity:1"
       d="M 372.109,373.18 L 372.109,380.66" /><path
       id="path6552"
       style="fill:none;stroke:#008000;stroke-width:1.17445195;stroke-linecap:butt;stroke-linejoin:miter;stroke-miterlimit:10;stroke-dasharray:none;stroke-opacity:1"
       d="M 412.004,373.18 L 412.004,380.66" /><path
       id="path6554"
       style="fill:none;stroke:#008000;stroke-width:1.17445195;stroke-linecap:butt;stroke-linejoin:miter;stroke-miterlimit:10;stroke-dasharray:none;stroke-opacity:1"
       d="M 393.617,376.922 L 394.812,376.922" /><path
       id="path6556"
       style="fill:none;stroke:#008000;stroke-width:1.17445195;stroke-linecap:butt;stroke-linejoin:miter;stroke-miterlimit:10;stroke-dasharray:none;stroke-opacity:1"
       d="M 498.348,434.883 L 498.348,439.934" /><path
       id="path6558"
       style="fill:none;stroke:#008000;stroke-width:1.17445195;stroke-linecap:butt;stroke-linejoin:miter;stroke-miterlimit:10;stroke-dasharray:none;stroke-opacity:1"
       d="M 498.348,439.934 L 498.348,444.691" /><path
       id="path6560"
       style="fill:none;stroke:#008000;stroke-width:1.17445195;stroke-linecap:butt;stroke-linejoin:miter;stroke-miterlimit:10;stroke-dasharray:none;stroke-opacity:1"
       d="M 412.004,439.934 L 498.348,439.934" /><path
       id="path6562"
       style="fill:none;stroke:#008000;stroke-width:1.17445195;stroke-linecap:butt;stroke-linejoin:miter;stroke-miterlimit:10;stroke-dasharray:none;stroke-opacity:1"
       d="M 498.348,439.934 L 536.266,439.934" /><path
       id="path6564"
       style="fill:none;stroke:#008000;stroke-width:1.17445195;stroke-linecap:butt;stroke-linejoin:miter;stroke-miterlimit:10;stroke-dasharray:none;stroke-opacity:1"
       d="M 494.477,434.883 L 502.219,434.883" /><path
       id="path6566"
       style="fill:none;stroke:#008000;stroke-width:1.17445195;stroke-linecap:butt;stroke-linejoin:miter;stroke-miterlimit:10;stroke-dasharray:none;stroke-opacity:1"
       d="M 494.477,444.691 L 502.219,444.691" /><path
       id="path6568"
       style="fill:none;stroke:#008000;stroke-width:1.17445195;stroke-linecap:butt;stroke-linejoin:miter;stroke-miterlimit:10;stroke-dasharray:none;stroke-opacity:1"
       d="M 412.004,436.191 L 412.004,443.672" /><path
       id="path6570"
       style="fill:none;stroke:#008000;stroke-width:1.17445195;stroke-linecap:butt;stroke-linejoin:miter;stroke-miterlimit:10;stroke-dasharray:none;stroke-opacity:1"
       d="M 536.266,436.191 L 536.266,443.672" /><path
       id="path6572"
       style="fill:none;stroke:#008000;stroke-width:1.17445195;stroke-linecap:butt;stroke-linejoin:miter;stroke-miterlimit:10;stroke-dasharray:none;stroke-opacity:1"
       d="M 497.152,439.934 L 498.348,439.934" /><path
       id="path6574"
       style="fill:#ff0007;fill-opacity:1;fill-rule:evenodd;stroke:none"
       d="M 513.293,525.793 L 520.676,537.793 L 505.91,537.793" /><path
       id="path6576"
       style="fill:#ff0007;fill-opacity:1;fill-rule:evenodd;stroke:none"
       d="M 497.293,510.543 L 504.676,522.543 L 489.91,522.543" /><path
       id="path6578"
       style="fill:#ff0007;fill-opacity:1;fill-rule:evenodd;stroke:none"
       d="M 480.371,494.793 L 487.754,506.793 L 472.988,506.793" /><path
       id="path6580"
       style="fill:#ff0007;fill-opacity:1;fill-rule:evenodd;stroke:none"
       d="M 466.523,474.996 L 473.91,486.996 L 459.141,486.996" /><path
       id="path6582"
       style="fill:#ff0007;fill-opacity:1;fill-rule:evenodd;stroke:none"
       d="M 455.758,475.996 L 463.141,487.996 L 448.371,487.996" /><path
       id="path6584"
       style="fill:#ff0007;fill-opacity:1;fill-rule:evenodd;stroke:none"
       d="M 444.066,465.844 L 451.449,477.844 L 436.68,477.844" /><path
       id="path6586"
       style="fill:#ff0007;fill-opacity:1;fill-rule:evenodd;stroke:none"
       d="M 427.758,448.996 L 435.141,460.996 L 420.375,460.996" /><path
       id="path6588"
       style="fill:#ff0007;fill-opacity:1;fill-rule:evenodd;stroke:none"
       d="M 400.988,436.895 L 408.375,448.895 L 393.605,448.895" /><path
       id="path6590"
       style="fill:#ff0007;fill-opacity:1;fill-rule:evenodd;stroke:none"
       d="M 372.684,423.145 L 380.066,435.145 L 365.297,435.145" /><path
       id="path6592"
       style="fill:#ff0007;fill-opacity:1;fill-rule:evenodd;stroke:none"
       d="M 330.531,387.793 L 337.914,399.793 L 323.145,399.793" /><path
       id="path6594"
       style="fill:#ff0007;fill-opacity:1;fill-rule:evenodd;stroke:none"
       d="M 260.379,363.145 L 267.766,375.145 L 252.996,375.145" /><path
       id="path6596"
       style="fill:#ff0007;fill-opacity:1;fill-rule:evenodd;stroke:none"
       d="M 236.996,349.246 L 244.379,361.246 L 229.613,361.246" /><path
       id="path6598"
       style="fill:#ff0007;fill-opacity:1;fill-rule:evenodd;stroke:none"
       d="M 208.688,324.293 L 216.074,336.293 L 201.305,336.293" /><path
       id="path6600"
       style="fill:#ff0007;fill-opacity:1;fill-rule:evenodd;stroke:none"
       d="M 165,291.344 L 172.383,303.344 L 157.613,303.344" /><g
       transform="matrix(1,0,0,-1,0,649)"
       id="g6602"><path
         id="path6604"
         style="fill:none;stroke:#ff0000;stroke-width:1.60000002;stroke-linecap:butt;stroke-linejoin:miter;stroke-miterlimit:4;stroke-dasharray:none;stroke-opacity:1"
         d="M 56.906,359.699 L 164.262,349.309 L 208.512,316.453 L 236.672,291.648 L 260.137,277.566 L 330.535,252.762 L 372.773,217.898 L 400.934,203.816 L 427.75,191.75 L 444.512,174.988 L 456.578,164.262 L 467.309,166.941 L 480.047,146.828 L 498.148,129.398 L 514.238,113.977" /></g><path
       id="path6606"
       style="fill:#000000;fill-opacity:1;fill-rule:nonzero;stroke:none"
       d="M 128.566,584.43 C 128.566,587.055 128.316,588.898 127.82,589.969 C 127.332,591.047 126.508,591.586 125.344,591.586 C 124.184,591.586 123.352,591.047 122.855,589.969 C 122.359,588.898 122.109,587.055 122.109,584.43 C 122.109,581.773 122.359,579.906 122.855,578.816 C 123.352,577.73 124.184,577.188 125.344,577.188 C 126.496,577.188 127.324,577.73 127.82,578.816 C 128.316,579.906 128.566,581.773 128.566,584.43 M 133.98,584.387 C 133.98,580.906 133.23,578.223 131.73,576.328 C 130.23,574.445 128.102,573.5 125.344,573.5 C 122.578,573.5 120.445,574.445 118.945,576.328 C 117.445,578.223 116.695,580.906 116.695,584.387 C 116.695,587.875 117.445,590.559 118.945,592.445 C 120.445,594.336 122.578,595.285 125.344,595.285 C 128.102,595.285 130.23,594.336 131.73,592.445 C 133.23,590.559 133.98,587.875 133.98,584.387" /><path
       id="path6608"
       style="fill:#000000;fill-opacity:1;fill-rule:nonzero;stroke:none"
       d="M 156.422,587.594 L 142.867,582.922 L 156.422,578.281 L 156.422,574.766 L 138.395,581.277 L 138.395,584.598 L 156.422,591.109 L 156.422,587.594" /><path
       id="path6610"
       style="fill:#000000;fill-opacity:1;fill-rule:nonzero;stroke:none"
       d="M 177.727,583.5 L 177.727,567.918 L 172.664,567.918 L 172.664,575.469 L 172.664,581.25 C 172.664,582.609 172.633,583.547 172.566,584.062 C 172.512,584.578 172.406,584.957 172.258,585.203 C 172.059,585.531 171.793,585.781 171.457,585.961 C 171.117,586.148 170.734,586.242 170.301,586.242 C 169.254,586.242 168.426,585.836 167.828,585.02 C 167.227,584.211 166.926,583.094 166.926,581.656 L 166.926,573.91 L 161.895,573.91 L 161.895,589.66 L 166.926,589.66 L 166.926,587.352 C 167.688,588.273 168.492,588.945 169.348,589.379 C 170.199,589.82 171.141,590.039 172.172,590.039 C 173.992,590.039 175.371,589.48 176.309,588.367 C 177.254,587.25 177.727,585.629 177.727,583.5" /><path
       id="path6612"
       style="fill:#000000;fill-opacity:1;fill-rule:nonzero;stroke:none"
       d="M 201.086,587.594 L 187.527,582.922 L 201.086,578.281 L 201.086,574.766 L 183.059,581.277 L 183.059,584.598 L 201.086,591.109 L 201.086,587.594" /><path
       id="path6614"
       style="fill:#000000;fill-opacity:1;fill-rule:nonzero;stroke:none"
       d="M 217.383,584.43 C 217.383,587.055 217.137,588.898 216.637,589.969 C 216.152,591.047 215.324,591.586 214.164,591.586 C 213,591.586 212.172,591.047 211.676,589.969 C 211.176,588.898 210.93,587.055 210.93,584.43 C 210.93,581.773 211.176,579.906 211.676,578.816 C 212.172,577.73 213,577.188 214.164,577.188 C 215.316,577.188 216.141,577.73 216.637,578.816 C 217.137,579.906 217.383,581.773 217.383,584.43 M 222.797,584.387 C 222.797,580.906 222.047,578.223 220.547,576.328 C 219.047,574.445 216.918,573.5 214.164,573.5 C 211.398,573.5 209.266,574.445 207.766,576.328 C 206.266,578.223 205.516,580.906 205.516,584.387 C 205.516,587.875 206.266,590.559 207.766,592.445 C 209.266,594.336 211.398,595.285 214.164,595.285 C 216.918,595.285 219.047,594.336 220.547,592.445 C 222.047,590.559 222.797,587.875 222.797,584.387" /><path
       id="path6616"
       style="fill:#000000;fill-opacity:1;fill-rule:nonzero;stroke:none"
       d="M 227.102,579.352 L 232.164,579.352 L 232.164,573.911 L 227.102,573.911 L 227.102,579.352 z" /><path
       id="path6618"
       style="fill:#000000;fill-opacity:1;fill-rule:nonzero;stroke:none"
       d="M 243.426,577.891 L 252.668,577.891 L 252.668,573.91 L 237.41,573.91 L 237.41,577.891 L 245.074,584.652 C 245.758,585.273 246.262,585.875 246.59,586.469 C 246.918,587.059 247.082,587.672 247.082,588.309 C 247.082,589.293 246.75,590.086 246.086,590.688 C 245.43,591.285 244.551,591.586 243.457,591.586 C 242.613,591.586 241.688,591.402 240.684,591.039 C 239.684,590.68 238.609,590.148 237.465,589.434 L 237.465,594.047 C 238.684,594.449 239.887,594.754 241.078,594.961 C 242.27,595.176 243.438,595.285 244.582,595.285 C 247.094,595.285 249.043,594.73 250.43,593.625 C 251.828,592.52 252.527,590.977 252.527,589 C 252.527,587.855 252.23,586.785 251.641,585.793 C 251.051,584.809 249.809,583.484 247.914,581.828 L 243.426,577.891" /><g
       transform="matrix(1,0,0,-1,0,649)"
       id="g6766"><path
         id="path6768"
         style="fill:none;stroke:#008000;stroke-width:2.4000001;stroke-linecap:butt;stroke-linejoin:miter;stroke-miterlimit:4;stroke-dasharray:none;stroke-opacity:1"
         d="M 478.703,367.41 C 495.238,228.93 458.328,230.965 417.023,264.16" /></g><path
       id="path6770"
       style="fill:#008000;fill-opacity:1;fill-rule:evenodd;stroke:none"
       d="M 430.449,388.18 L 414.559,382.832 L 423.199,397.195 C 423.379,392.961 426.32,389.328 430.449,388.18 z" /><text
       xml:space="preserve"
       style="font-size:28.79999924px;font-style:normal;font-variant:normal;font-weight:bold;font-stretch:normal;text-align:center;line-height:125%;writing-mode:lr-tb;text-anchor:middle;fill:#ff0000;fill-opacity:1;stroke:none;stroke-width:1px;stroke-linecap:butt;stroke-linejoin:miter;stroke-opacity:1;font-family:Bitstream Vera Sans;-inkscape-font-specification:Sans"
       x="193.09091"
       y="-442.5"
       id="text8489"
       sodipodi:linespacing="125%"
       transform="scale(1,-1)"><tspan
         sodipodi:role="line"
         id="tspan8491"
         x="193.09091"
         y="-442.5">MC: misalign-</tspan><tspan
         sodipodi:role="line"
         x="193.09091"
         y="-406.5"
         id="tspan8493">ment scenario</tspan></text>
<text
       xml:space="preserve"
       style="font-size:28.79999924px;font-style:normal;font-variant:normal;font-weight:bold;font-stretch:normal;text-align:center;line-height:125%;writing-mode:lr-tb;text-anchor:middle;fill:#0000ff;fill-opacity:1;stroke:none;stroke-width:1px;stroke-linecap:butt;stroke-linejoin:miter;stroke-opacity:1;font-family:Bitstream Vera Sans;-inkscape-font-specification:Sans"
       x="187.72728"
       y="-172.97725"
       id="text8495"
       sodipodi:linespacing="125%"
       transform="scale(1,-1)"><tspan
         sodipodi:role="line"
         id="tspan8497"
         x="187.72728"
         y="-172.97725">MC: perfect</tspan><tspan
         sodipodi:role="line"
         x="187.72728"
         y="-136.97725"
         id="tspan8499">alignment</tspan></text>
<text
       xml:space="preserve"
       style="font-size:28.79999924px;font-style:normal;font-variant:normal;font-weight:bold;font-stretch:normal;text-align:center;line-height:125%;writing-mode:lr-tb;text-anchor:middle;fill:#008000;fill-opacity:1;stroke:none;stroke-width:1px;stroke-linecap:butt;stroke-linejoin:miter;stroke-opacity:1;font-family:Bitstream Vera Sans;-inkscape-font-specification:Sans"
       x="455.90909"
       y="-254.77274"
       id="text8501"
       sodipodi:linespacing="125%"
       transform="scale(1,-1)"><tspan
         sodipodi:role="line"
         x="455.90909"
         y="-254.77274"
         id="tspan8511">cosmic-ray</tspan><tspan
         sodipodi:role="line"
         x="455.90909"
         y="-218.77274"
         id="tspan8509">data</tspan></text>
</g></svg>